<svg xmlns="http://www.w3.org/2000/svg" viewBox="0 0 400 225">
  <defs>
    <linearGradient id="g2" x1="0%" y1="0%" x2="100%" y2="100%">
      <stop offset="0%" style="stop-color:#242A64"/>
      <stop offset="100%" style="stop-color:#1E2355"/>
    </linearGradient>
  </defs>
  <rect width="400" height="225" fill="url(#g2)"/>
  <g opacity="0.08">
    <circle cx="320" cy="60" r="100" fill="#10BCFF"/>
  </g>
  <g opacity="0.5" transform="translate(130, 60)">
    <path d="M20 50 L30 20 L50 35 L70 10 L90 40 L110 15 L130 50" fill="none" stroke="#8C1C1B" stroke-width="2" stroke-linecap="round" stroke-linejoin="round"/>
    <path d="M20 65 L30 35 L50 50 L70 25 L90 55 L110 30 L130 65" fill="none" stroke="#10BCFF" stroke-width="1.5" stroke-linecap="round" stroke-linejoin="round" opacity="0.6"/>
    <circle cx="30" cy="20" r="3" fill="#8C1C1B" opacity="0.7"/>
    <circle cx="70" cy="10" r="3" fill="#8C1C1B" opacity="0.7"/>
    <circle cx="110" cy="15" r="3" fill="#8C1C1B" opacity="0.7"/>
    <circle cx="50" cy="35" r="2" fill="#10BCFF" opacity="0.5"/>
    <circle cx="90" cy="40" r="2" fill="#10BCFF" opacity="0.5"/>
  </g>
  <g transform="translate(0, 185)">
    <rect x="0" y="0" width="400" height="40" fill="#242A64" opacity="0.6"/>
  </g>
</svg>