<svg xmlns="http://www.w3.org/2000/svg" viewBox="0 0 400 225">
  <defs>
    <linearGradient id="g3" x1="0%" y1="0%" x2="100%" y2="100%">
      <stop offset="0%" style="stop-color:#242A64"/>
      <stop offset="100%" style="stop-color:#1E2355"/>
    </linearGradient>
  </defs>
  <rect width="400" height="225" fill="url(#g3)"/>
  <g opacity="0.08">
    <circle cx="100" cy="170" r="90" fill="#8C1C1B"/>
  </g>
  <g opacity="0.6" transform="translate(130, 55)">
    <rect x="0" y="0" width="120" height="90" rx="4" fill="none" stroke="#10BCFF" stroke-width="2"/>
    <g transform="translate(15, 15)">
      <rect x="0" y="0" width="90" height="2" rx="1" fill="#8C1C1B" opacity="0.8"/>
      <rect x="0" y="10" width="80" height="2" rx="1" fill="#10BCFF" opacity="0.6"/>
      <rect x="0" y="20" width="85" height="2" rx="1" fill="#10BCFF" opacity="0.5"/>
      <rect x="0" y="35" width="70" height="2" rx="1" fill="#8C1C1B" opacity="0.7"/>
      <rect x="0" y="45" width="75" height="2" rx="1" fill="#10BCFF" opacity="0.5"/>
      <rect x="0" y="55" width="65" height="2" rx="1" fill="#10BCFF" opacity="0.4"/>
      <rect x="0" y="65" width="50" height="2" rx="1" fill="#8C1C1B" opacity="0.6"/>
    </g>
    <rect x="10" y="80" width="6" height="6" rx="1" fill="#8C1C1B" opacity="0.8"/>
    <rect x="25" y="80" width="6" height="6" rx="1" fill="#10BCFF" opacity="0.6"/>
    <rect x="40" y="80" width="6" height="6" rx="1" fill="#8C1C1B" opacity="0.4"/>
  </g>
  <g transform="translate(0, 185)">
    <rect x="0" y="0" width="400" height="40" fill="#242A64" opacity="0.6"/>
  </g>
</svg>