<svg xmlns="http://www.w3.org/2000/svg" viewBox="0 0 1920 1080">
  <defs>
    <linearGradient id="bg" x1="0%" y1="0%" x2="100%" y2="100%">
      <stop offset="0%" style="stop-color:#242A64"/>
      <stop offset="100%" style="stop-color:#242A64"/>
    </linearGradient>
  </defs>
  <rect width="1920" height="1080" fill="url(#bg)"/>
  <g opacity="0.06">
    <rect x="100" y="200" width="40" height="280" rx="3" fill="#8C1C1B"/>
    <rect x="160" y="250" width="35" height="230" rx="3" fill="#8C1C1B"/>
    <rect x="210" y="180" width="45" height="300" rx="3" fill="#10BCFF"/>
    <rect x="270" y="220" width="30" height="260" rx="3" fill="#8C1C1B"/>
    <rect x="320" y="170" width="50" height="310" rx="3" fill="#8C1C1B"/>
    <rect x="390" y="240" width="35" height="240" rx="3" fill="#10BCFF"/>
    <rect x="450" y="190" width="40" height="290" rx="3" fill="#8C1C1B"/>
    <rect x="510" y="260" width="45" height="220" rx="3" fill="#8C1C1B"/>
    <rect x="570" y="180" width="30" height="300" rx="3" fill="#10BCFF"/>
    <rect x="620" y="210" width="50" height="270" rx="3" fill="#8C1C1B"/>
    <rect x="690" y="160" width="40" height="320" rx="3" fill="#8C1C1B"/>
    <rect x="750" y="230" width="35" height="250" rx="3" fill="#10BCFF"/>
    <rect x="800" y="190" width="45" height="290" rx="3" fill="#8C1C1B"/>
    <rect x="860" y="250" width="30" height="230" rx="3" fill="#8C1C1B"/>
    <rect x="910" y="175" width="50" height="305" rx="3" fill="#10BCFF"/>
    <rect x="980" y="215" width="40" height="265" rx="3" fill="#8C1C1B"/>
    <rect x="1040" y="185" width="35" height="295" rx="3" fill="#8C1C1B"/>
    <rect x="1090" y="245" width="45" height="235" rx="3" fill="#10BCFF"/>
    <rect x="1150" y="170" width="30" height="310" rx="3" fill="#8C1C1B"/>
    <rect x="1200" y="200" width="50" height="280" rx="3" fill="#8C1C1B"/>
    <rect x="1270" y="230" width="40" height="250" rx="3" fill="#10BCFF"/>
    <rect x="1330" y="180" width="35" height="300" rx="3" fill="#8C1C1B"/>
    <rect x="1380" y="220" width="45" height="260" rx="3" fill="#8C1C1B"/>
    <rect x="1440" y="190" width="30" height="290" rx="3" fill="#10BCFF"/>
    <rect x="1490" y="240" width="50" height="240" rx="3" fill="#8C1C1B"/>
    <rect x="1560" y="170" width="40" height="310" rx="3" fill="#8C1C1B"/>
    <rect x="1620" y="210" width="35" height="270" rx="3" fill="#10BCFF"/>
    <rect x="1670" y="185" width="45" height="295" rx="3" fill="#8C1C1B"/>
    <rect x="1730" y="250" width="30" height="230" rx="3" fill="#8C1C1B"/>
    <rect x="1780" y="190" width="50" height="290" rx="3" fill="#10BCFF"/>
  </g>
  <g opacity="0.04">
    <rect x="50" y="500" width="1820" height="4" rx="2" fill="#10BCFF"/>
    <rect x="50" y="650" width="1820" height="4" rx="2" fill="#10BCFF"/>
    <rect x="50" y="800" width="1820" height="4" rx="2" fill="#10BCFF"/>
  </g>
  <g opacity="0.03">
    <circle cx="300" cy="700" r="3" fill="#8C1C1B"/>
    <circle cx="600" cy="750" r="2" fill="#10BCFF"/>
    <circle cx="900" cy="680" r="3" fill="#8C1C1B"/>
    <circle cx="1200" cy="720" r="2" fill="#10BCFF"/>
    <circle cx="1500" cy="690" r="3" fill="#8C1C1B"/>
    <circle cx="400" cy="850" r="2" fill="#10BCFF"/>
    <circle cx="800" cy="870" r="3" fill="#8C1C1B"/>
    <circle cx="1100" cy="840" r="2" fill="#10BCFF"/>
    <circle cx="1600" cy="860" r="3" fill="#8C1C1B"/>
    <circle cx="200" cy="400" r="2" fill="#10BCFF"/>
    <circle cx="700" cy="420" r="3" fill="#8C1C1B"/>
    <circle cx="1300" cy="430" r="2" fill="#10BCFF"/>
    <circle cx="1700" cy="410" r="3" fill="#8C1C1B"/>
    <circle cx="500" cy="550" r="2" fill="#10BCFF"/>
    <circle cx="1000" cy="530" r="3" fill="#8C1C1B"/>
    <circle cx="1400" cy="560" r="2" fill="#10BCFF"/>
  </g>
</svg>